<svg width="51" height="51" viewBox="0 0 51 51" fill="none" xmlns="http://www.w3.org/2000/svg">
<g clip-path="url(#clip0_52_265)">
<path d="M21.0533 35.005V16.255L33.5533 25.63M25.22 4.79666C22.4841 4.79666 19.775 5.33553 17.2474 6.3825C14.7198 7.42948 12.4232 8.96405 10.4886 10.8986C6.58159 14.8056 4.38666 20.1047 4.38666 25.63C4.38666 31.1553 6.58159 36.4544 10.4886 40.3614C12.4232 42.2959 14.7198 43.8305 17.2474 44.8775C19.775 45.9245 22.4841 46.4633 25.22 46.4633C30.7453 46.4633 36.0444 44.2684 39.9514 40.3614C43.8584 36.4544 46.0533 31.1553 46.0533 25.63C46.0533 22.8941 45.5145 20.185 44.4675 17.6574C43.4205 15.1298 41.8859 12.8332 39.9514 10.8986C38.0168 8.96405 35.7202 7.42948 33.1926 6.3825C30.6649 5.33553 27.9559 4.79666 25.22 4.79666Z" fill="url(#paint0_linear_52_265)"/>
</g>
<defs>
<linearGradient id="paint0_linear_52_265" x1="4.38666" y1="4.79666" x2="4171.05" y2="4.79666" gradientUnits="userSpaceOnUse">
<stop stop-color="#1488CC"/>
<stop offset="1" stop-color="#60A5FA"/>
</linearGradient>
<clipPath id="clip0_52_265">
<rect width="50" height="50" fill="white" transform="translate(0.219971 0.630005)"/>
</clipPath>
</defs>
</svg>
