<svg width="34" height="35" viewBox="0 0 34 35" fill="none" xmlns="http://www.w3.org/2000/svg">
<rect y="0.630005" width="34" height="34" rx="4" fill="#60A5FA"/>
<g clip-path="url(#clip0_52_246)">
<path d="M24.1497 13.9638C24.1612 14.1237 24.1612 14.2836 24.1612 14.4435C24.1612 19.3204 20.4492 24.9397 13.665 24.9397C11.5749 24.9397 9.63325 24.3343 8 23.2836C8.29696 23.3179 8.58247 23.3293 8.89086 23.3293C10.6154 23.3293 12.203 22.7468 13.4708 21.7532C11.849 21.7189 10.4898 20.6567 10.0216 19.1948C10.25 19.229 10.4784 19.2519 10.7183 19.2519C11.0495 19.2519 11.3807 19.2062 11.6891 19.1263C9.99874 18.7836 8.73093 17.2988 8.73093 15.5057V15.46C9.22203 15.7341 9.79314 15.9055 10.3984 15.9283C9.40477 15.2658 8.75379 14.1351 8.75379 12.8559C8.75379 12.1707 8.93649 11.5425 9.25631 10.9943C11.0723 13.2328 13.802 14.6948 16.8629 14.8547C16.8058 14.5806 16.7715 14.2951 16.7715 14.0095C16.7715 11.9765 18.4162 10.3204 20.4606 10.3204C21.5228 10.3204 22.4822 10.7659 23.156 11.4854C23.9898 11.3255 24.7893 11.0171 25.4974 10.5945C25.2233 11.4512 24.6408 12.1707 23.8756 12.6275C24.618 12.5476 25.3375 12.342 25.9999 12.0565C25.4975 12.7874 24.8693 13.4384 24.1497 13.9638Z" fill="white"/>
</g>
<defs>
<clipPath id="clip0_52_246">
<rect width="18" height="18" fill="white" transform="translate(8 8.63)"/>
</clipPath>
</defs>
</svg>
