<svg width="34" height="35" viewBox="0 0 34 35" fill="none" xmlns="http://www.w3.org/2000/svg">
<rect y="0.630005" width="34" height="34" rx="4" fill="black"/>
<g clip-path="url(#clip0_52_258)">
<g clip-path="url(#clip1_52_258)">
<path d="M24.875 16.0097C23.3272 16.0134 21.8174 15.5307 20.5589 14.6298V20.9129C20.5585 22.0766 20.2028 23.2124 19.5394 24.1685C18.876 25.1246 17.9365 25.8554 16.8466 26.2632C15.7567 26.6709 14.5682 26.7362 13.4402 26.4503C12.3122 26.1644 11.2983 25.5409 10.5342 24.6632C9.77005 23.7855 9.29209 22.6955 9.1642 21.5388C9.03631 20.3822 9.26459 19.214 9.81851 18.1906C10.3724 17.1672 11.2256 16.3373 12.2639 15.8119C13.3022 15.2864 14.4762 15.0905 15.6289 15.2503V18.4105C15.1014 18.2446 14.535 18.2496 14.0106 18.4248C13.4861 18.6 13.0304 18.9364 12.7086 19.386C12.3867 19.8356 12.2152 20.3755 12.2185 20.9284C12.2217 21.4813 12.3996 22.0191 12.7267 22.4649C13.0538 22.9107 13.5135 23.2418 14.04 23.4108C14.5664 23.5798 15.1329 23.5781 15.6583 23.406C16.1838 23.2339 16.6415 22.9001 16.966 22.4524C17.2904 22.0047 17.4651 21.4658 17.4651 20.9129V8.63H20.5589C20.5567 8.89127 20.5786 9.15217 20.6243 9.40942C20.7318 9.98369 20.9553 10.53 21.2812 11.0149C21.6071 11.4998 22.0284 11.9132 22.5195 12.2297C23.2182 12.6916 24.0374 12.9379 24.875 12.9377V16.0097Z" fill="white"/>
</g>
</g>
<defs>
<clipPath id="clip0_52_258">
<rect width="18" height="18" fill="white" transform="translate(8 8.63)"/>
</clipPath>
<clipPath id="clip1_52_258">
<rect width="18" height="18" fill="white" transform="translate(8 8.63)"/>
</clipPath>
</defs>
</svg>
