<svg width="34" height="35" viewBox="0 0 34 35" fill="none" xmlns="http://www.w3.org/2000/svg">
<rect y="0.630005" width="34" height="34" rx="4" fill="#EF4444"/>
<g clip-path="url(#clip0_52_254)">
<g clip-path="url(#clip1_52_254)">
<path d="M17.0574 10.8789H17.1575C18.0823 10.8823 22.7679 10.916 24.0312 11.2558C24.4132 11.3595 24.7612 11.5616 25.0406 11.8419C25.3199 12.1222 25.5208 12.471 25.6231 12.8533C25.7367 13.2808 25.8166 13.8467 25.8706 14.4305L25.8819 14.5475L25.9066 14.84L25.9156 14.957C25.9888 15.9853 25.9977 16.9483 25.9989 17.1587V17.243C25.9977 17.4613 25.9876 18.4895 25.9066 19.5605L25.8976 19.6787L25.8875 19.7957C25.8312 20.4392 25.748 21.0782 25.6231 21.5484C25.5211 21.9309 25.3203 22.2798 25.0409 22.5601C24.7615 22.8405 24.4133 23.0425 24.0312 23.1459C22.7263 23.4969 17.7661 23.5217 17.0787 23.5228H16.919C16.5714 23.5228 15.1336 23.516 13.6261 23.4643L13.4349 23.4575L13.337 23.453L13.1446 23.4452L12.9522 23.4373C11.7035 23.3822 10.5144 23.2933 9.9665 23.1448C9.58455 23.0415 9.23645 22.8397 8.95706 22.5595C8.67768 22.2793 8.47683 21.9306 8.37463 21.5484C8.24975 21.0793 8.1665 20.4392 8.11025 19.7957L8.10125 19.6775L8.09225 19.5605C8.03673 18.7982 8.00596 18.0343 8 17.27L8 17.1317C8.00225 16.8898 8.01125 16.0539 8.072 15.1314L8.07988 15.0155L8.08325 14.957L8.09225 14.84L8.117 14.5475L8.12825 14.4305C8.18225 13.8467 8.26212 13.2797 8.37575 12.8533C8.47778 12.4708 8.67856 12.1219 8.95795 11.8415C9.23735 11.5612 9.58554 11.3592 9.96762 11.2558C10.5155 11.1095 11.7046 11.0195 12.9534 10.9633L13.1446 10.9554L13.3381 10.9487L13.4349 10.9453L13.6272 10.9374C14.6979 10.903 15.769 10.8838 16.8402 10.88H17.0574V10.8789ZM15.2 14.4902V19.9104L19.8766 17.2014L15.2 14.4902Z" fill="white"/>
</g>
</g>
<defs>
<clipPath id="clip0_52_254">
<rect width="18" height="18" fill="white" transform="translate(8 8.63)"/>
</clipPath>
<clipPath id="clip1_52_254">
<rect width="18" height="18" fill="white" transform="translate(8 8.63)"/>
</clipPath>
</defs>
</svg>
