<svg width="34" height="35" viewBox="0 0 34 35" fill="none" xmlns="http://www.w3.org/2000/svg">
<rect y="0.630005" width="34" height="34" rx="4" fill="#3886E6"/>
<g clip-path="url(#clip0_52_242)">
<path d="M22.7524 12.3941C22.7478 12.3852 22.7402 12.3782 22.731 12.3744C21.6587 11.8825 20.5272 11.5317 19.3648 11.3308C19.3542 11.3289 19.3433 11.3303 19.3336 11.3349C19.3239 11.3395 19.3159 11.347 19.3107 11.3564C19.1566 11.6361 19.0168 11.9233 18.8916 12.217C17.6386 12.0268 16.364 12.0268 15.1109 12.217C14.985 11.9225 14.8429 11.6352 14.6852 11.3564C14.6798 11.3472 14.6718 11.3398 14.6621 11.3353C14.6525 11.3307 14.6417 11.3292 14.6311 11.3308C13.4685 11.5313 12.337 11.8821 11.2649 12.3745C11.2557 12.3783 11.248 12.385 11.2427 12.3935C9.0988 15.5952 8.51149 18.7181 8.7996 21.8024C8.80041 21.81 8.80273 21.8173 8.80643 21.8239C8.81013 21.8306 8.81512 21.8364 8.82112 21.8411C10.0695 22.7654 11.4659 23.471 12.9506 23.9277C12.961 23.9308 12.9722 23.9307 12.9826 23.9273C12.9929 23.9239 13.002 23.9174 13.0086 23.9087C13.3275 23.4748 13.61 23.0153 13.8534 22.535C13.8567 22.5284 13.8586 22.5212 13.859 22.5138C13.8593 22.5064 13.8581 22.499 13.8554 22.4921C13.8527 22.4853 13.8486 22.479 13.8433 22.4739C13.838 22.4687 13.8317 22.4647 13.8247 22.4622C13.3792 22.2917 12.9478 22.0862 12.5347 21.8476C12.5272 21.8432 12.5209 21.837 12.5163 21.8295C12.5118 21.8221 12.5091 21.8137 12.5086 21.805C12.5081 21.7963 12.5097 21.7876 12.5134 21.7797C12.517 21.7718 12.5226 21.7649 12.5295 21.7596C12.6164 21.6947 12.7018 21.6278 12.7857 21.5589C12.793 21.5529 12.8019 21.549 12.8114 21.5477C12.8208 21.5464 12.8304 21.5478 12.8391 21.5517C15.5456 22.7869 18.4756 22.7869 21.15 21.5517C21.1588 21.5476 21.1685 21.546 21.1781 21.5472C21.1876 21.5483 21.1967 21.5522 21.2042 21.5583C21.2881 21.6275 21.3737 21.6947 21.461 21.7596C21.468 21.7649 21.4735 21.7717 21.4772 21.7796C21.4809 21.7875 21.4826 21.7961 21.4822 21.8048C21.4817 21.8135 21.4791 21.822 21.4747 21.8294C21.4702 21.8369 21.4639 21.8431 21.4564 21.8476C21.0443 22.0882 20.6125 22.2936 20.1658 22.4615C20.1588 22.4642 20.1525 22.4683 20.1473 22.4735C20.142 22.4787 20.138 22.485 20.1353 22.492C20.1326 22.4989 20.1315 22.5063 20.1319 22.5137C20.1323 22.5211 20.1343 22.5284 20.1377 22.535C20.3851 23.0126 20.6672 23.4715 20.9818 23.9079C20.9882 23.9168 20.9972 23.9236 21.0076 23.9271C21.0181 23.9306 21.0293 23.9308 21.0398 23.9276C22.5272 23.4725 23.926 22.7668 25.1759 21.8411C25.182 21.8367 25.1871 21.831 25.1908 21.8244C25.1945 21.8179 25.1968 21.8106 25.1975 21.8031C25.5424 18.2373 24.62 15.1399 22.7524 12.3941ZM14.2576 19.9244C13.4427 19.9244 12.7713 19.1767 12.7713 18.2583C12.7713 17.34 13.4297 16.5922 14.2576 16.5922C15.0919 16.5922 15.7568 17.3465 15.7438 18.2583C15.7438 19.1766 15.0854 19.9244 14.2576 19.9244ZM19.7526 19.9244C18.9378 19.9244 18.2664 19.1767 18.2664 18.2583C18.2664 17.34 18.9248 16.5922 19.7526 16.5922C20.587 16.5922 21.2519 17.3465 21.2389 18.2583C21.2389 19.1766 20.587 19.9244 19.7526 19.9244Z" fill="white"/>
</g>
<defs>
<clipPath id="clip0_52_242">
<rect width="18" height="18" fill="white" transform="translate(8 8.63)"/>
</clipPath>
</defs>
</svg>
