<svg width="34" height="35" viewBox="0 0 34 35" fill="none" xmlns="http://www.w3.org/2000/svg">
<rect y="0.630005" width="34" height="34" rx="4" fill="url(#paint0_linear_52_250)"/>
<g clip-path="url(#clip0_52_250)">
<path d="M17.0035 13.5871C14.7676 13.5871 12.9641 15.3906 12.9641 17.6265C12.9641 19.8625 14.7676 21.666 17.0035 21.666C19.2395 21.666 21.043 19.8625 21.043 17.6265C21.043 15.3906 19.2395 13.5871 17.0035 13.5871ZM17.0035 20.2527C15.5586 20.2527 14.3774 19.075 14.3774 17.6265C14.3774 16.1781 15.5551 15.0004 17.0035 15.0004C18.452 15.0004 19.6297 16.1781 19.6297 17.6265C19.6297 19.075 18.4484 20.2527 17.0035 20.2527ZM22.1504 13.4219C22.1504 13.9457 21.7285 14.364 21.2082 14.364C20.6844 14.364 20.266 13.9422 20.266 13.4219C20.266 12.9015 20.6879 12.4797 21.2082 12.4797C21.7285 12.4797 22.1504 12.9015 22.1504 13.4219ZM24.8258 14.3781C24.766 13.116 24.4777 11.998 23.5531 11.0769C22.632 10.1558 21.5141 9.86755 20.252 9.80427C18.9512 9.73044 15.0524 9.73044 13.7516 9.80427C12.493 9.86404 11.375 10.1523 10.4504 11.0734C9.52579 11.9945 9.24103 13.1125 9.17775 14.3746C9.10392 15.6754 9.10392 19.5742 9.17775 20.875C9.23751 22.1371 9.52579 23.2551 10.4504 24.1761C11.375 25.0972 12.4895 25.3855 13.7516 25.4488C15.0524 25.5226 18.9512 25.5226 20.252 25.4488C21.5141 25.389 22.632 25.1008 23.5531 24.1761C24.4742 23.2551 24.7625 22.1371 24.8258 20.875C24.8996 19.5742 24.8996 15.6789 24.8258 14.3781ZM23.1453 22.2707C22.8711 22.9597 22.3402 23.4906 21.6477 23.7683C20.6106 24.1797 18.1496 24.0847 17.0035 24.0847C15.8574 24.0847 13.393 24.1761 12.3594 23.7683C11.6703 23.4941 11.1395 22.9633 10.8617 22.2707C10.4504 21.2336 10.5453 18.7726 10.5453 17.6265C10.5453 16.4804 10.4539 14.016 10.8617 12.9824C11.1359 12.2933 11.6668 11.7625 12.3594 11.4847C13.3965 11.0734 15.8574 11.1683 17.0035 11.1683C18.1496 11.1683 20.6141 11.0769 21.6477 11.4847C22.3367 11.759 22.8676 12.2898 23.1453 12.9824C23.5567 14.0195 23.4617 16.4804 23.4617 17.6265C23.4617 18.7726 23.5567 21.2371 23.1453 22.2707Z" fill="white"/>
</g>
<defs>
<linearGradient id="paint0_linear_52_250" x1="0" y1="0.630005" x2="34" y2="34.63" gradientUnits="userSpaceOnUse">
<stop stop-color="#1488CC"/>
<stop offset="0.5" stop-color="#60A5FA"/>
<stop offset="1" stop-color="#6366F1"/>
</linearGradient>
<clipPath id="clip0_52_250">
<rect width="18" height="18" fill="white" transform="translate(8 8.63)"/>
</clipPath>
</defs>
</svg>
