<svg width="51" height="51" viewBox="0 0 51 51" fill="none" xmlns="http://www.w3.org/2000/svg">
<g clip-path="url(#clip0_52_273)">
<path d="M41.6789 11.0859C41.6662 11.0612 41.645 11.0418 41.6192 11.0312C38.6409 9.66473 35.4978 8.6903 32.2688 8.13233C32.2394 8.12688 32.2091 8.13081 32.1821 8.14358C32.1552 8.15634 32.1329 8.17728 32.1185 8.20343C31.6905 8.98022 31.302 9.77811 30.9545 10.5941C27.4737 10.0657 23.9332 10.0657 20.4524 10.5941C20.1026 9.77603 19.7078 8.97795 19.27 8.20343C19.255 8.17785 19.2326 8.15739 19.2058 8.14471C19.179 8.13203 19.149 8.12772 19.1197 8.13233C15.8903 8.68913 12.7471 9.66363 9.76908 11.0313C9.74359 11.0421 9.72208 11.0606 9.70752 11.0841C3.75213 19.9777 2.12072 28.6526 2.92103 37.2201C2.92329 37.2411 2.92974 37.2615 2.94 37.2799C2.95027 37.2984 2.96414 37.3146 2.9808 37.3276C6.44857 39.8952 10.3273 41.8551 14.4515 43.1236C14.4805 43.1323 14.5116 43.1319 14.5404 43.1225C14.5692 43.113 14.5944 43.095 14.6127 43.0708C15.4985 41.8655 16.2833 40.5893 16.9593 39.255C16.9686 39.2367 16.9739 39.2166 16.9749 39.1961C16.9758 39.1756 16.9725 39.1551 16.9649 39.136C16.9574 39.1169 16.9459 39.0996 16.9312 39.0853C16.9165 39.0709 16.899 39.0599 16.8797 39.0528C15.642 38.5792 14.4438 38.0084 13.2963 37.3455C13.2754 37.3333 13.2579 37.3161 13.2453 37.2955C13.2327 37.2748 13.2253 37.2514 13.2239 37.2273C13.2225 37.2031 13.227 37.179 13.2371 37.1571C13.2472 37.1351 13.2626 37.1159 13.2818 37.1013C13.5233 36.921 13.7606 36.735 13.9935 36.5437C14.0139 36.5269 14.0386 36.5161 14.0648 36.5126C14.0911 36.5091 14.1177 36.5129 14.1419 36.5237C21.6598 39.9548 29.7989 39.9548 37.2278 36.5237C37.252 36.5122 37.279 36.5078 37.3056 36.5111C37.3322 36.5143 37.3574 36.525 37.3781 36.5419C37.6113 36.7343 37.8492 36.9208 38.0916 37.1013C38.1109 37.1158 38.1264 37.1348 38.1367 37.1567C38.147 37.1786 38.1517 37.2027 38.1504 37.2268C38.1492 37.2509 38.142 37.2744 38.1295 37.2951C38.1171 37.3158 38.0997 37.3331 38.0789 37.3455C36.934 38.0139 35.7347 38.5845 34.4938 39.051C34.4745 39.0583 34.457 39.0697 34.4424 39.0842C34.4278 39.0988 34.4164 39.1163 34.4091 39.1355C34.4017 39.1548 34.3985 39.1754 34.3996 39.196C34.4007 39.2165 34.4062 39.2367 34.4156 39.255C35.1029 40.5818 35.8867 41.8565 36.7605 43.0687C36.7782 43.0935 36.8033 43.1122 36.8323 43.122C36.8612 43.1318 36.8925 43.1323 36.9217 43.1233C41.0532 41.8591 44.9388 39.8991 48.4109 37.3276C48.4278 37.3152 48.4419 37.2994 48.4522 37.2812C48.4625 37.263 48.4688 37.2428 48.4706 37.2219C49.4288 27.317 46.8666 18.7132 41.6789 11.0859ZM18.082 32.0034C15.8186 32.0034 13.9536 29.9263 13.9536 27.3754C13.9536 24.8244 15.7824 22.7472 18.082 22.7472C20.3996 22.7472 22.2466 24.8425 22.2104 27.3752C22.2104 29.9263 20.3815 32.0034 18.082 32.0034ZM33.3461 32.0034C31.0828 32.0034 29.2178 29.9263 29.2178 27.3754C29.2178 24.8244 31.0466 22.7472 33.3461 22.7472C35.6638 22.7472 37.5107 24.8425 37.4745 27.3752C37.4745 29.9263 35.6638 32.0034 33.3461 32.0034Z" fill="url(#paint0_linear_52_273)"/>
</g>
<defs>
<linearGradient id="paint0_linear_52_273" x1="2.7312" y1="8.12994" x2="4596.47" y2="8.12994" gradientUnits="userSpaceOnUse">
<stop stop-color="#1488CC"/>
<stop offset="1" stop-color="#60A5FA"/>
</linearGradient>
<clipPath id="clip0_52_273">
<rect width="50" height="50" fill="white" transform="translate(0.699951 0.630005)"/>
</clipPath>
</defs>
</svg>
