<svg width="33" height="33" viewBox="0 0 33 33" fill="none" xmlns="http://www.w3.org/2000/svg">
<g clip-path="url(#clip0_52_297)">
<g clip-path="url(#clip1_52_297)">
<path d="M8.25 0.630005C4.9375 0.630005 2.25 3.3175 2.25 6.63V26.63C2.25 29.9425 4.9375 32.63 8.25 32.63H28.25C29.3563 32.63 30.25 31.7363 30.25 30.63C30.25 29.5238 29.3563 28.63 28.25 28.63V24.63C29.3563 24.63 30.25 23.7363 30.25 22.63V2.63C30.25 1.52375 29.3563 0.630005 28.25 0.630005H8.25ZM8.25 24.63H24.25V28.63H8.25C7.14375 28.63 6.25 27.7363 6.25 26.63C6.25 25.5238 7.14375 24.63 8.25 24.63ZM10.25 9.63C10.25 9.08 10.7 8.63 11.25 8.63H23.25C23.8 8.63 24.25 9.08 24.25 9.63C24.25 10.18 23.8 10.63 23.25 10.63H11.25C10.7 10.63 10.25 10.18 10.25 9.63ZM11.25 12.63H23.25C23.8 12.63 24.25 13.08 24.25 13.63C24.25 14.18 23.8 14.63 23.25 14.63H11.25C10.7 14.63 10.25 14.18 10.25 13.63C10.25 13.08 10.7 12.63 11.25 12.63Z" fill="#B4C6D0"/>
</g>
</g>
<defs>
<clipPath id="clip0_52_297">
<rect width="32" height="32" fill="white" transform="translate(0.25 0.630005)"/>
</clipPath>
<clipPath id="clip1_52_297">
<rect width="32" height="32" fill="white" transform="translate(0.25 0.630005)"/>
</clipPath>
</defs>
</svg>
