<svg width="33" height="33" viewBox="0 0 33 33" fill="none" xmlns="http://www.w3.org/2000/svg">
<g clip-path="url(#clip0_52_287)">
<g clip-path="url(#clip1_52_287)">
<path d="M5.69332 6.85223C5.69332 5.38001 6.88776 4.18556 8.35999 4.18556H24.36C25.8322 4.18556 27.0267 5.38001 27.0267 6.85223V23.7411H5.69332V6.85223ZM23.0822 9.46334C22.56 8.94112 21.7155 8.94112 21.1989 9.46334L15.0322 15.63L12.4211 13.0189C11.8989 12.4967 11.0544 12.4967 10.5378 13.0189C10.0211 13.5411 10.0155 14.3856 10.5378 14.9022L14.0933 18.4578C14.6155 18.98 15.46 18.98 15.9767 18.4578L23.0822 11.3522C23.6044 10.83 23.6044 9.98556 23.0822 9.4689V9.46334ZM0.359985 21.0745C0.359985 19.6022 1.55443 18.4078 3.02665 18.4078H3.91554V25.5189H28.8044V18.4078H29.6933C31.1655 18.4078 32.36 19.6022 32.36 21.0745V26.4078C32.36 27.88 31.1655 29.0745 29.6933 29.0745H3.02665C1.55443 29.0745 0.359985 27.88 0.359985 26.4078V21.0745Z" fill="#B4C6D0"/>
</g>
</g>
<defs>
<clipPath id="clip0_52_287">
<rect width="32" height="32" fill="white" transform="translate(0.359985 0.630005)"/>
</clipPath>
<clipPath id="clip1_52_287">
<rect width="32" height="32" fill="white" transform="translate(0.359985 0.630005)"/>
</clipPath>
</defs>
</svg>
