<svg width="25" height="25" viewBox="0 0 25 25" fill="none" xmlns="http://www.w3.org/2000/svg">
<g clip-path="url(#clip0_52_302)">
<g clip-path="url(#clip1_52_302)">
<path d="M0.390015 2.96333C0.390015 2.40917 0.835848 1.96333 1.39001 1.96333H3.28585C4.20251 1.96333 5.01501 2.49667 5.39418 3.29667H22.5192C23.615 3.29667 24.415 4.33833 24.1275 5.39667L22.4192 11.7425C22.065 13.0508 20.8775 13.9633 19.5233 13.9633H7.50251L7.72752 15.1508C7.81918 15.6217 8.23168 15.9633 8.71085 15.9633H20.7233C21.2775 15.9633 21.7233 16.4092 21.7233 16.9633C21.7233 17.5175 21.2775 17.9633 20.7233 17.9633H8.71085C7.26918 17.9633 6.03168 16.9383 5.76501 15.5258L3.61501 4.23417C3.58585 4.07583 3.44835 3.96333 3.28585 3.96333H1.39001C0.835848 3.96333 0.390015 3.5175 0.390015 2.96333ZM5.72335 21.2967C5.72335 21.034 5.77508 20.774 5.87559 20.5313C5.9761 20.2886 6.12342 20.0682 6.30913 19.8825C6.49485 19.6967 6.71533 19.5494 6.95798 19.4489C7.20063 19.3484 7.4607 19.2967 7.72335 19.2967C7.98599 19.2967 8.24606 19.3484 8.48872 19.4489C8.73137 19.5494 8.95184 19.6967 9.13756 19.8825C9.32328 20.0682 9.4706 20.2886 9.57111 20.5313C9.67162 20.774 9.72335 21.034 9.72335 21.2967C9.72335 21.5593 9.67162 21.8194 9.57111 22.062C9.4706 22.3047 9.32328 22.5252 9.13756 22.7109C8.95184 22.8966 8.73137 23.0439 8.48872 23.1444C8.24606 23.2449 7.98599 23.2967 7.72335 23.2967C7.4607 23.2967 7.20063 23.2449 6.95798 23.1444C6.71533 23.0439 6.49485 22.8966 6.30913 22.7109C6.12342 22.5252 5.9761 22.3047 5.87559 22.062C5.77508 21.8194 5.72335 21.5593 5.72335 21.2967ZM19.7233 19.2967C20.2538 19.2967 20.7625 19.5074 21.1376 19.8825C21.5126 20.2575 21.7233 20.7662 21.7233 21.2967C21.7233 21.8271 21.5126 22.3358 21.1376 22.7109C20.7625 23.086 20.2538 23.2967 19.7233 23.2967C19.1929 23.2967 18.6842 23.086 18.3091 22.7109C17.9341 22.3358 17.7233 21.8271 17.7233 21.2967C17.7233 20.7662 17.9341 20.2575 18.3091 19.8825C18.6842 19.5074 19.1929 19.2967 19.7233 19.2967Z" fill="#041A27"/>
</g>
</g>
<defs>
<clipPath id="clip0_52_302">
<rect width="24" height="24" fill="white" transform="translate(0.390015 0.630005)"/>
</clipPath>
<clipPath id="clip1_52_302">
<rect width="24" height="24" fill="white" transform="translate(0.390015 0.630005)"/>
</clipPath>
</defs>
</svg>
