<svg width="33" height="33" viewBox="0 0 33 33" fill="none" xmlns="http://www.w3.org/2000/svg">
<g clip-path="url(#clip0_52_292)">
<g clip-path="url(#clip1_52_292)">
<path d="M16.69 7.96333C17.9277 7.96333 19.1147 8.455 19.9898 9.33017C20.865 10.2053 21.3567 11.3923 21.3567 12.63C21.3567 13.8677 20.865 15.0547 19.9898 15.9298C19.1147 16.805 17.9277 17.2967 16.69 17.2967C15.4523 17.2967 14.2653 16.805 13.3902 15.9298C12.515 15.0547 12.0233 13.8677 12.0233 12.63C12.0233 11.3923 12.515 10.2053 13.3902 9.33017C14.2653 8.455 15.4523 7.96333 16.69 7.96333ZM7.35667 11.2967C8.10334 11.2967 8.79667 11.4967 9.39667 11.8567C9.19667 13.7633 9.75667 15.6567 10.9033 17.1367C10.2367 18.4167 8.90334 19.2967 7.35667 19.2967C6.2958 19.2967 5.27839 18.8752 4.52824 18.1251C3.7781 17.3749 3.35667 16.3575 3.35667 15.2967C3.35667 14.2358 3.7781 13.2184 4.52824 12.4682C5.27839 11.7181 6.2958 11.2967 7.35667 11.2967ZM26.0233 11.2967C27.0842 11.2967 28.1016 11.7181 28.8518 12.4682C29.6019 13.2184 30.0233 14.2358 30.0233 15.2967C30.0233 16.3575 29.6019 17.3749 28.8518 18.1251C28.1016 18.8752 27.0842 19.2967 26.0233 19.2967C24.4767 19.2967 23.1433 18.4167 22.4767 17.1367C23.6392 15.6359 24.1788 13.7449 23.9833 11.8567C24.5833 11.4967 25.2767 11.2967 26.0233 11.2967ZM8.02334 24.9633C8.02334 22.2033 11.9033 19.9633 16.69 19.9633C21.4767 19.9633 25.3567 22.2033 25.3567 24.9633V27.2967H8.02334V24.9633ZM0.690002 27.2967V25.2967C0.690002 23.4433 3.21 21.8833 6.62334 21.43C5.83667 22.3367 5.35667 23.59 5.35667 24.9633V27.2967H0.690002ZM32.69 27.2967H28.0233V24.9633C28.0233 23.59 27.5433 22.3367 26.7567 21.43C30.17 21.8833 32.69 23.4433 32.69 25.2967V27.2967Z" fill="#B4C6D0"/>
</g>
</g>
<defs>
<clipPath id="clip0_52_292">
<rect width="32" height="32" fill="white" transform="translate(0.690002 0.630005)"/>
</clipPath>
<clipPath id="clip1_52_292">
<rect width="32" height="32" fill="white" transform="translate(0.690002 0.630005)"/>
</clipPath>
</defs>
</svg>
