<svg width="32" height="33" viewBox="0 0 32 33" fill="none" xmlns="http://www.w3.org/2000/svg">
<g clip-path="url(#clip0_52_281)">
<g clip-path="url(#clip1_52_281)">
<path d="M31.9889 16.6022C31.9889 17.6022 31.1556 18.3856 30.2111 18.3856H28.4333L28.4722 27.2856C28.4722 27.4356 28.4611 27.5856 28.4444 27.7356V28.63C28.4444 29.8578 27.45 30.8522 26.2222 30.8522H25.3333C25.2722 30.8522 25.2111 30.8522 25.15 30.8467C25.0722 30.8522 24.9944 30.8522 24.9167 30.8522H21.7778C20.55 30.8522 19.5556 29.8578 19.5556 28.63V23.7411C19.5556 22.7578 18.7611 21.9633 17.7778 21.9633H14.2222C13.2389 21.9633 12.4444 22.7578 12.4444 23.7411V28.63C12.4444 29.8578 11.45 30.8522 10.2222 30.8522H7.11667C7.03333 30.8522 6.95 30.8467 6.86667 30.8411C6.8 30.8467 6.73333 30.8522 6.66667 30.8522H5.77778C4.55 30.8522 3.55556 29.8578 3.55556 28.63V22.4078C3.55556 22.3578 3.55556 22.3022 3.56111 22.2522V18.3856H1.77778C0.777778 18.3856 0 17.6078 0 16.6022C0 16.1022 0.166667 15.6578 0.555556 15.2689L14.8 2.85222C15.1889 2.46333 15.6333 2.40778 16.0222 2.40778C16.4111 2.40778 16.8556 2.51889 17.1889 2.79666L31.3778 15.2689C31.8222 15.6578 32.0444 16.1022 31.9889 16.6022Z" fill="white"/>
</g>
</g>
<defs>
<clipPath id="clip0_52_281">
<rect width="32" height="32" fill="white" transform="translate(0 0.630005)"/>
</clipPath>
<clipPath id="clip1_52_281">
<rect width="32" height="32" fill="white" transform="translate(0 0.630005)"/>
</clipPath>
</defs>
</svg>
